<?xml version="1.0" standalone="no"?>
<!DOCTYPE svg PUBLIC "-//W3C//DTD SVG 20010904//EN"
 "http://www.w3.org/TR/2001/REC-SVG-20010904/DTD/svg10.dtd">
<svg version="1.0" xmlns="http://www.w3.org/2000/svg"
 width="117.000000pt" height="117.000000pt" viewBox="0 0 117.000000 117.000000"
 preserveAspectRatio="xMidYMid meet">
<metadata>
Created by potrace 1.14, written by Peter Selinger 2001-2017
</metadata>
<g transform="translate(0.000000,117.000000) scale(0.100000,-0.100000)"
fill="#000000" stroke="none">
<path d="M540 1163 c-8 -3 -73 -40 -145 -81 -72 -42 -162 -94 -200 -116 -99
-57 -113 -69 -125 -100 -6 -16 -10 -129 -10 -283 0 -235 2 -258 19 -287 14
-22 76 -64 227 -151 247 -143 258 -147 306 -130 36 12 390 212 440 248 46 34
49 54 46 340 l-3 267 -30 28 c-16 16 -122 82 -235 147 -196 113 -250 135 -290
118z m115 -168 c212 -118 279 -160 296 -189 17 -28 19 -52 19 -219 0 -156 -3
-194 -16 -216 -24 -41 -327 -214 -374 -214 -48 0 -349 172 -374 213 -13 23
-16 59 -16 217 0 167 2 191 19 219 26 42 321 213 369 214 18 0 53 -11 77 -25z"/>
<path d="M504 874 c-214 -114 -217 -118 -212 -299 4 -153 6 -156 148 -238 135
-78 145 -78 280 0 143 83 145 85 147 241 2 163 -4 178 -94 230 -182 106 -190
108 -269 66z"/>
</g>
</svg>
